PathFileType	4	(X/Y/Z)	63_1_31_p1_0-688.trc
DataRate	CameraRate	NumFrames	NumMarkers	Units	OrigDataRate	OrigDataStartFrame	OrigNumFrames
57.0	57.0	5	27	m	57.0	602	689
Frame#	Time	RHip			RKnee			RAnkle			RBigToe			RSmallToe			RHeel			LHip			LKnee			LAnkle			LBigToe			LSmallToe			LHeel			Neck			Head			Nose			RShoulder			RElbow			RWrist			RThumb			RIndex			RPinky			LShoulder			LElbow			LWrist			LThumb			LIndex			LPinky			
		X1	Y1	Z1	X2	Y2	Z2	X3	Y3	Z3	X4	Y4	Z4	X5	Y5	Z5	X6	Y6	Z6	X7	Y7	Z7	X8	Y8	Z8	X9	Y9	Z9	X10	Y10	Z10	X11	Y11	Z11	X12	Y12	Z12	X13	Y13	Z13	X14	Y14	Z14	X15	Y15	Z15	X16	Y16	Z16	X17	Y17	Z17	X18	Y18	Z18	X19	Y19	Z19	X20	Y20	Z20	X21	Y21	Z21	X22	Y22	Z22	X23	Y23	Z23	X24	Y24	Z24	X25	Y25	Z25	X26	Y26	Z26	X27	Y27	Z27	
602	10.56140350877193	0.30379869502331064	0.5716957424661698	0.6842324090001428	0.3408986368623498	0.6999805710097593	1.1454962348144346	0.3436023816770446	0.8674872843245302	1.5843796754016373	0.29096867103320107	0.6443308839983665	1.616690055851376	0.36522782974354745	0.6534600216179985	1.60049389075817	0.3333201260574909	0.9739501749223886	1.6400629512102807	0.08104605120305729	0.5855947812070361	0.6920584610150529	0.10002185981527598	0.7264666018152756	1.1481834294272204	0.12959350100840916	0.8744878962426368	1.5727530352167551	0.13062213538334497	0.6545526630919856	1.5990696481896631	0.08339462858766933	0.7293691259971775	1.6066542113004783	0.1422138227660234	0.9423123912287402	1.6239655226986172	0.18069864197019295	0.3996931621567903	0.14414891454328335	0.20818147017676378	0.25862229243377954	-0.07146742512287266	0.19173334723899946	0.26439133030677514	0.04616514237911975	0.33592708717703146	0.41066087298876397	0.22408152590487104	0.40306996203556344	0.5245753337434232	0.4492908545691856	0.32885673842257795	0.39115987117208967	0.4097496974385907	0.23443233103340877	0.2407162396522032	0.3453081854294016	0.21315679707721305	0.21091933448361513	0.3630195635605525	0.21823218138845693	0.24887401231512557	0.4254252509772759	0.029370056559188507	0.44930578642967023	0.20268074417329512	-0.02274007087963691	0.5371526636506397	0.43279165058721	0.021355171539006453	0.40432152155628065	0.4072481113746106	0.06029566797687132	0.2954504359684911	0.34219811317093646	0.06236059139829223	0.2870365998207464	0.351090985437161	0.08228650323419073	0.3107880239946394	0.42470378765603356
603	10.578947368421053	0.3038318351090275	0.5715015146511004	0.6839733718424126	0.3408808246281985	0.7000616358574482	1.145444023977413	0.343627843194957	0.8677989919041301	1.5845614306915534	0.29587258352458823	0.6594359526468366	1.621358002029555	0.3653835342277587	0.6540053094356625	1.600702206681284	0.32859228895512677	0.9726503801614695	1.6400489035263848	0.08105783643462094	0.5856916528068064	0.692004575797383	0.09999273210688928	0.7266174534119584	1.1482772260645135	0.12957631199560105	0.8745042270880551	1.5727833095932708	0.13064496286363333	0.6549193854419972	1.599245852646209	0.0834312740834258	0.7296864787672519	1.6068021989764778	0.14206213188155023	0.9417736486189935	1.6238847675327495	0.18039779164848593	0.3983341529920354	0.1408064389371755	0.20814964191082388	0.25863669026804226	-0.07136795999346487	0.1919870476671958	0.2648571635128017	0.049646142337272846	0.3357886809774665	0.41049288136471984	0.22044515306134083	0.4092646731331724	0.5106334506128145	0.44885741770725646	0.3255192349750193	0.39301620441935264	0.4136250013306176	0.2406270806504973	0.2665917954802298	0.3507663405479132	0.21745374615106208	0.22246376437623394	0.3650602890330413	0.22314593263856844	0.28366221199083086	0.42339482756631697	0.03296598274170098	0.46293581867251893	0.20049456482563718	-0.03180755311686559	0.5486694501349597	0.4333633896152536	0.021058690779624432	0.40573863561954704	0.4104727831339895	0.06758205542906494	0.2983138832429003	0.34734994134464914	0.07123988304188184	0.27977302972688456	0.358494308583298	0.08767627628626834	0.31581072759330586	0.42442898912039745
604	10.596491228070175	0.31144444164705287	0.5694700804563413	0.6835803729833136	0.34052501607389674	0.7006450630464162	1.1415418735264422	0.34354637629995766	0.8677077888175331	1.5844602169871724	0.2906878935035235	0.6442057379922107	1.6168673324003942	0.3650091510456571	0.6531232225890606	1.600679429515714	0.32857198198061716	0.9726238749730239	1.6399089773344395	0.0818515944110874	0.5880489241702632	0.6965296609706583	0.09999709659654885	0.7265789974113229	1.1481834616850273	0.12952330521210975	0.8743637153342391	1.572633340975673	0.13214440486030113	0.6569521344480455	1.6085233973244941	0.08317100286092721	0.7296135853949571	1.6069167656174088	0.14293758488427305	0.9393363174337209	1.6185139543060496	0.1809072740150653	0.400624669135671	0.14398052157072558	0.20530112837061565	0.2717165529655189	-0.07443589487992903	0.1958323166974685	0.2766614757316535	0.05052863488846174	0.34039200858355484	0.4219197127984224	0.21866739751980035	0.4222932287131543	0.48056319057110625	0.4529014805931644	0.3166059475102068	0.3820771662399556	0.4218068430032981	0.20786582493197386	0.23110394309895604	0.3568722616296883	0.2006832751946862	0.2089705599834182	0.3721696758568805	0.19703845201852924	0.2463826196202592	0.4263784905546024	0.026017235481035277	0.43852145402980097	0.208344568807091	-0.04127345455307487	0.5331418004912672	0.4611433744920672	0.030508140949055886	0.3978624067735569	0.4144217564966319	0.0888262807720693	0.3109805693090299	0.35341314164169657	0.0989035902449892	0.2600859094116306	0.3691407490248713	0.10361018504252814	0.3363810808425941	0.4196500781118018
605	10.614035087719298	0.3068911988281694	0.5563872860337219	0.6835462696600084	0.34119135184803917	0.7000507311241267	1.1454615035780895	0.3435919906059866	0.8679470868663737	1.5845301127125058	0.29556424710655893	0.6588673593934843	1.6212724970610088	0.3649957596876008	0.6533788482433357	1.6006586096318813	0.32871024493549456	0.973151815872715	1.6400174446865163	0.08134120395649863	0.5857232426319501	0.6920999291456508	0.09899782301558538	0.7235566078455997	1.1435307623239088	0.12956181762438226	0.8744141098197146	1.5726174585089208	0.1323798494521712	0.6563220011003444	1.6081430916185053	0.08345850045560538	0.7287966041751082	1.6063916267095715	0.14205127148955363	0.941714912997736	1.6239109148069861	0.18097663613285309	0.4009181589709242	0.14386414548343843	0.20530695554888817	0.27245863727335623	-0.07476664922965136	0.19276288117054294	0.2892717776769071	0.04827728826861874	0.3498653305629962	0.4255523775982704	0.22132001769552856	0.4173992698037651	0.4693533613869471	0.4688839604943126	0.30798074555664984	0.3599492331631304	0.4276743973711187	0.20521267927361428	0.23358753542634933	0.37037444772215095	0.1936657120353344	0.20102475727291233	0.38752837194052553	0.19883352611686103	0.25115811870545485	0.43638998794818534	0.026154482366827114	0.4384204210925493	0.21200254465081614	-0.037973792157081535	0.5336636242105227	0.46188675487072195	0.03861364646318875	0.41191241241647497	0.4138016515614656	0.10503418812137896	0.31129502373023626	0.3835909318691297	0.1174981082053335	0.28084035441088484	0.40326265210306816	0.1020344417538895	0.3720358582478387	0.4211735407683457
606	10.631578947368421	0.3116845398072112	0.5572049335529976	0.6832996340543639	0.34114036011358084	0.7002112558441532	1.1454699110053	0.34359514547642256	0.8679768549799519	1.5845861372836458	0.29576000751819354	0.6587439286577352	1.62128895718553	0.3652160500037519	0.6535546323276158	1.6007652302559598	0.32866982322597194	0.9729582510472995	1.640038406548573	0.08583891845094425	0.5891827218410055	0.6927838924517293	0.09905557750999222	0.7233553535906436	1.1436033384963116	0.12954959583530007	0.8743641038421559	1.5727414992022817	0.1318881297832977	0.6572974106087749	1.6040237303605775	0.08343225094060235	0.7287555518721536	1.6063451867597422	0.14194362990358617	0.9411623215237898	1.6238834392308004	0.1842126738603494	0.40095303723044196	0.13975942116605664	0.2059487173193235	0.28548549252031824	-0.08182063067165486	0.19262335615684167	0.2886587939018159	0.044754734187218786	0.34470913036187123	0.4037657157323906	0.22518282646294557	0.4100804105583226	0.46953094457901706	0.4695789934747314	0.2903940713529803	0.31333722785353346	0.43566043568674656	0.2026353191059402	0.21332727015788014	0.39912278166628773	0.1957260088259403	0.176495357893767	0.41645933245896327	0.20121497716119982	0.23629356927630094	0.44758062706249585	0.02549380225327986	0.4362962522781357	0.20481340772059126	-0.027595634709745263	0.5274578168083783	0.4476261897342831	0.052544706141718474	0.3638407048993133	0.43468201807217327	0.1029628849728604	0.23272495804325116	0.4213736255926236	0.09670986753249063	0.22225732467924497	0.42936441888318216	0.10061051890720188	0.30660872585770216	0.4826902342878623
